<svg width="33" height="32" viewBox="0 0 33 32" fill="none" xmlns="http://www.w3.org/2000/svg">
<path d="M21.3315 9.47968L16.6753 0V14.4983L21.3315 9.47968Z" fill="url(#paint0_linear_1143_5029)"/>
<path d="M12.0191 9.36823L1.42627 10.9697L16.6474 14.4148L12.0191 9.36823Z" fill="url(#paint1_linear_1143_5029)"/>
<path d="M24.2311 18.374L31.787 11.0133L16.6753 14.4149L24.2311 18.374Z" fill="url(#paint2_linear_1143_5029)"/>
<path d="M16.7211 23.9614L26.1218 28.775L16.7211 14.4426L16.7211 23.9614Z" fill="url(#paint3_linear_1143_5029)"/>
<path d="M9.0637 18.4017L7.27686 29.028L12.0749 21.6638L16.6753 14.3868L9.0637 18.4017Z" fill="url(#paint4_linear_1143_5029)"/>
<path d="M12.047 9.38309L16.6753 0.00894165V14.4983L12.047 9.38309Z" fill="url(#paint5_linear_1143_5029)"/>
<path d="M9.06363 18.4016L1.43489 10.9722L16.6753 14.3868L9.06363 18.4016Z" fill="url(#paint6_linear_1143_5029)"/>
<path d="M21.3595 9.45159L31.815 11.013L16.536 14.554L21.3595 9.45159Z" fill="url(#paint7_linear_1143_5029)"/>
<path d="M24.1753 18.318L26.1162 28.7677L16.6752 14.4146L24.1753 18.318Z" fill="url(#paint8_linear_1143_5029)"/>
<path d="M16.7031 23.8943L7.28177 29.0204L16.7588 14.1358L16.7031 23.8943Z" fill="url(#paint9_linear_1143_5029)"/>
<defs>
<linearGradient id="paint0_linear_1143_5029" x1="19.0034" y1="0" x2="19.0034" y2="14.4983" gradientUnits="userSpaceOnUse">
<stop stop-color="#104D95"/>
<stop offset="1" stop-color="#67A2E7"/>
</linearGradient>
<linearGradient id="paint1_linear_1143_5029" x1="2.1189" y1="8.74702" x2="15.9607" y2="13.0604" gradientUnits="userSpaceOnUse">
<stop stop-color="#104D95"/>
<stop offset="1" stop-color="#67A2E7"/>
</linearGradient>
<linearGradient id="paint2_linear_1143_5029" x1="32.6047" y1="12.7185" x2="18.4606" y2="15.9039" gradientUnits="userSpaceOnUse">
<stop stop-color="#104D95"/>
<stop offset="1" stop-color="#67A2E7"/>
</linearGradient>
<linearGradient id="paint3_linear_1143_5029" x1="24.2559" y1="30.1672" x2="15.586" y2="18.5467" gradientUnits="userSpaceOnUse">
<stop stop-color="#67A2E7"/>
<stop offset="1" stop-color="#104D95"/>
</linearGradient>
<linearGradient id="paint4_linear_1143_5029" x1="5.34032" y1="27.7358" x2="13.3877" y2="15.6759" gradientUnits="userSpaceOnUse">
<stop stop-color="#104D95"/>
<stop offset="1" stop-color="#67A2E7"/>
</linearGradient>
<linearGradient id="paint5_linear_1143_5029" x1="14.3611" y1="-0.278939" x2="14.3611" y2="14.4982" gradientUnits="userSpaceOnUse">
<stop stop-color="#82BBFF"/>
<stop offset="1" stop-color="#5E9BE3"/>
</linearGradient>
<linearGradient id="paint6_linear_1143_5029" x1="0.471571" y1="13.096" x2="14.5796" y2="17.4923" gradientUnits="userSpaceOnUse">
<stop stop-color="#82BBFF"/>
<stop offset="1" stop-color="#5E9BE3"/>
</linearGradient>
<linearGradient id="paint7_linear_1143_5029" x1="31.8568" y1="8.12807" x2="17.4408" y2="11.3748" gradientUnits="userSpaceOnUse">
<stop stop-color="#82BBFF"/>
<stop offset="1" stop-color="#5E9BE3"/>
</linearGradient>
<linearGradient id="paint8_linear_1143_5029" x1="28.1432" y1="27.6146" x2="19.3066" y2="15.7707" gradientUnits="userSpaceOnUse">
<stop stop-color="#82BBFF"/>
<stop offset="1" stop-color="#5E9BE3"/>
</linearGradient>
<linearGradient id="paint9_linear_1143_5029" x1="9.0469" y1="30.5444" x2="17.249" y2="18.2525" gradientUnits="userSpaceOnUse">
<stop stop-color="#82BBFF"/>
<stop offset="1" stop-color="#5E9BE3"/>
</linearGradient>
</defs>
</svg>
