<svg width="35" height="34" viewBox="0 0 35 34" fill="none" xmlns="http://www.w3.org/2000/svg">
<path d="M22.6244 10.0542L17.686 0V15.377L22.6244 10.0542Z" fill="url(#paint0_linear_1143_5363)"/>
<path d="M12.7475 9.93594L1.5127 11.6345L17.6563 15.2883L12.7475 9.93594Z" fill="url(#paint1_linear_1143_5363)"/>
<path d="M25.6995 19.4873L33.7133 11.6806L17.6858 15.2882L25.6995 19.4873Z" fill="url(#paint2_linear_1143_5363)"/>
<path d="M17.7344 25.4135L27.7048 30.5189L17.7344 15.3178L17.7344 25.4135Z" fill="url(#paint3_linear_1143_5363)"/>
<path d="M9.6129 19.5168L7.71777 30.7871L12.8066 22.9767L17.6858 15.2586L9.6129 19.5168Z" fill="url(#paint4_linear_1143_5363)"/>
<path d="M12.7772 9.95189L17.686 0.00964355V15.3771L12.7772 9.95189Z" fill="url(#paint5_linear_1143_5363)"/>
<path d="M9.61284 19.5168L1.52178 11.6371L17.6858 15.2586L9.61284 19.5168Z" fill="url(#paint6_linear_1143_5363)"/>
<path d="M22.6542 10.0246L33.7434 11.6806L17.5384 15.4362L22.6542 10.0246Z" fill="url(#paint7_linear_1143_5363)"/>
<path d="M25.6407 19.4282L27.6992 30.5111L17.6861 15.2882L25.6407 19.4282Z" fill="url(#paint8_linear_1143_5363)"/>
<path d="M17.7155 25.3424L7.72322 30.7792L17.7746 14.9925L17.7155 25.3424Z" fill="url(#paint9_linear_1143_5363)"/>
<defs>
<linearGradient id="paint0_linear_1143_5363" x1="20.1552" y1="0" x2="20.1552" y2="15.377" gradientUnits="userSpaceOnUse">
<stop stop-color="#AFE767"/>
<stop offset="1" stop-color="#266C53"/>
</linearGradient>
<linearGradient id="paint1_linear_1143_5363" x1="2.25112" y1="9.26482" x2="18.0036" y2="14.1736" gradientUnits="userSpaceOnUse">
<stop stop-color="#AFE767"/>
<stop offset="1" stop-color="#266C53"/>
</linearGradient>
<linearGradient id="paint2_linear_1143_5363" x1="34.3563" y1="14.5358" x2="18.3292" y2="18.1453" gradientUnits="userSpaceOnUse">
<stop stop-color="#AFE767"/>
<stop offset="1" stop-color="#266C53"/>
</linearGradient>
<linearGradient id="paint3_linear_1143_5363" x1="26.1661" y1="31.6669" x2="15.315" y2="17.1229" gradientUnits="userSpaceOnUse">
<stop stop-color="#AFE767"/>
<stop offset="1" stop-color="#266C53"/>
</linearGradient>
<linearGradient id="paint4_linear_1143_5363" x1="5.77165" y1="29.4885" x2="16.0122" y2="14.1419" gradientUnits="userSpaceOnUse">
<stop stop-color="#AFE767"/>
<stop offset="1" stop-color="#266C53"/>
</linearGradient>
<linearGradient id="paint5_linear_1143_5363" x1="15.2316" y1="0.00964355" x2="15.2316" y2="15.3771" gradientUnits="userSpaceOnUse">
<stop offset="0.541667" stop-color="#C5EE91"/>
<stop offset="1" stop-color="#9BD918"/>
</linearGradient>
<linearGradient id="paint6_linear_1143_5363" x1="0.961821" y1="13.4341" x2="16.7238" y2="18.3458" gradientUnits="userSpaceOnUse">
<stop offset="0.541667" stop-color="#C5EE91"/>
<stop offset="1" stop-color="#9BD918"/>
</linearGradient>
<linearGradient id="paint7_linear_1143_5363" x1="33.3096" y1="9.75457" x2="17.0819" y2="13.4093" gradientUnits="userSpaceOnUse">
<stop offset="0.541667" stop-color="#C5EE91"/>
<stop offset="1" stop-color="#9BD918"/>
</linearGradient>
<linearGradient id="paint8_linear_1143_5363" x1="29.694" y1="29.0228" x2="18.8172" y2="14.4443" gradientUnits="userSpaceOnUse">
<stop offset="0.541667" stop-color="#C5EE91"/>
<stop offset="1" stop-color="#9BD918"/>
</linearGradient>
<linearGradient id="paint9_linear_1143_5363" x1="9.59532" y1="32.3955" x2="18.2945" y2="19.3587" gradientUnits="userSpaceOnUse">
<stop stop-color="#C5EE91"/>
<stop offset="1" stop-color="#AAE042"/>
</linearGradient>
</defs>
</svg>
