<svg width="18" height="18" viewBox="0 0 21 21" fill="none" xmlns="http://www.w3.org/2000/svg">
<path d="M15.9688 7.72779C15.9688 11.8683 12.6128 15.2248 8.47294 15.2248C4.33307 15.2248 0.977051 11.8683 0.977051 7.72779C0.977051 3.5873 4.33307 0.230774 8.47294 0.230774C12.6128 0.230774 15.9688 3.5873 15.9688 7.72779ZM2.30483 7.72779C2.30483 11.1348 5.06639 13.8968 8.47294 13.8968C11.8795 13.8968 14.641 11.1348 14.641 7.72779C14.641 4.32073 11.8795 1.55876 8.47294 1.55876C5.06639 1.55876 2.30483 4.32073 2.30483 7.72779Z" fill="black"/>
<rect width="2.28338" height="9.57049" rx="1.14169" transform="matrix(0.784733 -0.619834 0.665416 0.746473 12.2207 13.1118)" fill="black"/>
</svg>
