<svg width="37" height="35" viewBox="0 0 37 35" fill="none" xmlns="http://www.w3.org/2000/svg">
<path d="M23.4851 10.4366L18.3589 0V15.9618L23.4851 10.4366Z" fill="url(#paint0_linear_1143_5385)"/>
<path d="M13.2329 10.3138L1.5708 12.0769L18.3284 15.8697L13.2329 10.3138Z" fill="url(#paint1_linear_1143_5385)"/>
<path d="M26.6775 20.2285L34.996 12.1248L18.3589 15.8697L26.6775 20.2285Z" fill="url(#paint2_linear_1143_5385)"/>
<path d="M18.4091 26.3801L28.7587 31.6796L18.4091 15.9004L18.4091 26.3801Z" fill="url(#paint3_linear_1143_5385)"/>
<path d="M9.97892 20.2591L8.01172 31.958L13.2941 23.8506L18.3589 15.839L9.97892 20.2591Z" fill="url(#paint4_linear_1143_5385)"/>
<path d="M13.2634 10.3304L18.3589 0.0100098V15.9619L13.2634 10.3304Z" fill="url(#paint5_linear_1143_5385)"/>
<path d="M9.97851 20.259L1.57973 12.0797L18.3585 15.8389L9.97851 20.259Z" fill="url(#paint6_linear_1143_5385)"/>
<path d="M23.5158 10.4059L35.0267 12.1249L18.2054 16.0233L23.5158 10.4059Z" fill="url(#paint7_linear_1143_5385)"/>
<path d="M26.6161 20.1671L28.7529 31.6715L18.359 15.8697L26.6161 20.1671Z" fill="url(#paint8_linear_1143_5385)"/>
<path d="M18.3895 26.3063L8.01718 31.9498L18.4508 15.5627L18.3895 26.3063Z" fill="url(#paint9_linear_1143_5385)"/>
<defs>
<linearGradient id="paint0_linear_1143_5385" x1="20.922" y1="0" x2="20.922" y2="15.9618" gradientUnits="userSpaceOnUse">
<stop offset="0.34375" stop-color="#FF9108"/>
<stop offset="1" stop-color="#A66411"/>
</linearGradient>
<linearGradient id="paint1_linear_1143_5385" x1="2.33731" y1="9.61715" x2="18.6889" y2="14.7126" gradientUnits="userSpaceOnUse">
<stop offset="0.34375" stop-color="#FF9108"/>
<stop offset="1" stop-color="#A66411"/>
</linearGradient>
<linearGradient id="paint2_linear_1143_5385" x1="35.6635" y1="15.0886" x2="19.0269" y2="18.8354" gradientUnits="userSpaceOnUse">
<stop offset="0.34375" stop-color="#FF9108"/>
<stop offset="1" stop-color="#A66411"/>
</linearGradient>
<linearGradient id="paint3_linear_1143_5385" x1="27.1615" y1="32.8713" x2="15.8977" y2="17.7742" gradientUnits="userSpaceOnUse">
<stop offset="0.34375" stop-color="#FF9108"/>
<stop offset="1" stop-color="#A66411"/>
</linearGradient>
<linearGradient id="paint4_linear_1143_5385" x1="5.99158" y1="30.61" x2="16.6216" y2="14.6797" gradientUnits="userSpaceOnUse">
<stop offset="0.34375" stop-color="#FF9108"/>
<stop offset="1" stop-color="#A66411"/>
</linearGradient>
<linearGradient id="paint5_linear_1143_5385" x1="15.8111" y1="0.0100098" x2="15.8111" y2="15.9619" gradientUnits="userSpaceOnUse">
<stop stop-color="#FFB75E"/>
<stop offset="1" stop-color="#FF9108"/>
</linearGradient>
<linearGradient id="paint6_linear_1143_5385" x1="0.998477" y1="13.945" x2="17.3599" y2="19.0435" gradientUnits="userSpaceOnUse">
<stop stop-color="#FFB75E"/>
<stop offset="1" stop-color="#FF9108"/>
</linearGradient>
<linearGradient id="paint7_linear_1143_5385" x1="34.5764" y1="10.1256" x2="17.7316" y2="13.9193" gradientUnits="userSpaceOnUse">
<stop stop-color="#FFB75E"/>
<stop offset="1" stop-color="#FF9108"/>
</linearGradient>
<linearGradient id="paint8_linear_1143_5385" x1="30.8236" y1="30.1266" x2="19.5331" y2="14.9937" gradientUnits="userSpaceOnUse">
<stop stop-color="#FFB75E"/>
<stop offset="1" stop-color="#FF9108"/>
</linearGradient>
<linearGradient id="paint9_linear_1143_5385" x1="10.1293" y1="33.3592" x2="20.9098" y2="17.2035" gradientUnits="userSpaceOnUse">
<stop stop-color="#FFB75E"/>
<stop offset="1" stop-color="#FF9108"/>
</linearGradient>
</defs>
</svg>
