<svg width="22" height="32" viewBox="0 0 22 32" fill="none" xmlns="http://www.w3.org/2000/svg">
<path d="M22 10.4803C22 7.66595 20.8452 5.0241 18.7484 3.04148C16.6723 1.0783 13.9235 0 11.0005 0C10.9718 0 10.9434 0.000121567 10.9148 0.000364701C7.98444 0.0214565 5.23132 1.13841 3.16257 3.14554C1.09238 5.15411 -0.0305732 7.79936 0.000633344 10.5941C0.0339995 13.5902 1.41832 16.436 3.7986 18.4019C5.19043 19.5514 6.07096 21.1456 6.29011 22.8682H15.7109C15.9332 21.1503 16.8235 19.5478 18.2302 18.3779C20.6259 16.3855 22 13.5069 22 10.4803ZM7.81091 11.8886L6.45756 13.178L3.50265 10.3627L6.45756 7.54735L7.81091 8.83674L6.20934 10.3627L7.81091 11.8886ZM10.8551 15.4818L8.98165 15.1089L11.1449 5.24341L13.0183 5.61633L10.8551 15.4818ZM15.5423 13.178L14.189 11.8886L15.7906 10.3627L14.189 8.83674L15.5423 7.54735L18.4972 10.3627L15.5423 13.178Z" fill="url(#paint0_linear_1143_5360)"/>
<path d="M6.19629 26.5447H15.8034C15.8034 29.0722 13.6528 31.1213 10.9999 31.1213C8.34692 31.1213 6.19629 29.0722 6.19629 26.5447Z" fill="url(#paint1_linear_1143_5360)"/>
<defs>
<linearGradient id="paint0_linear_1143_5360" x1="11" y1="0" x2="11" y2="22.8682" gradientUnits="userSpaceOnUse">
<stop stop-color="#E46EFF"/>
<stop offset="0.526042" stop-color="#9F25EB"/>
<stop offset="0.989583" stop-color="#6B0CBE"/>
</linearGradient>
<linearGradient id="paint1_linear_1143_5360" x1="10.9999" y1="26.5447" x2="10.9999" y2="31.1213" gradientUnits="userSpaceOnUse">
<stop stop-color="#E46EFF"/>
<stop offset="0.526042" stop-color="#9F25EB"/>
<stop offset="0.989583" stop-color="#6B0CBE"/>
</linearGradient>
</defs>
</svg>
