<svg width="35" height="21" viewBox="0 0 35 21" fill="none" xmlns="http://www.w3.org/2000/svg">
<path d="M2.79497 18.1949C0.880384 15.8017 1.19948 12.8101 1.59835 11.6135C2.55565 8.74165 5.18821 8.02368 6.38482 8.02368C6.38482 5.1518 7.98032 3.23698 8.77807 2.63861C15.0005 -1.66945 18.9493 2.04028 20.1459 4.43371C27.8042 2.51917 29.7189 8.02369 29.7189 11.0152C33.3087 12.2118 33.907 13.4085 33.3087 16.9983C32.8301 19.8702 28.7217 20.1893 26.7273 19.9899H7.58145C4.70957 19.9899 3.19385 18.7932 2.79497 18.1949Z" fill="#2E9BFF"/>
<path d="M20.1459 4.43371C27.8042 2.51917 29.7189 8.02369 29.7189 11.0152C33.3087 12.2118 33.907 13.4085 33.3087 16.9983C32.8301 19.8702 28.7217 20.1893 26.7273 19.9899H7.58145C4.70957 19.9899 3.19385 18.7932 2.79497 18.1949C0.880384 15.8017 1.19948 12.8101 1.59835 11.6135C2.55565 8.74165 5.18821 8.02368 6.38482 8.02368C6.38482 5.1518 7.98032 3.23698 8.77807 2.63861C15.0005 -1.66945 18.9493 2.04028 20.1459 4.43371ZM20.1459 4.43371C12.4876 6.3483 16.955 5.23155 20.1459 4.43371Z" stroke="#2E9BFF" stroke-width="1.19662"/>
<rect x="18.2455" y="17.3264" width="1.19662" height="7.1797" transform="rotate(-180 18.2455 17.3264)" fill="white"/>
<rect x="15.0961" y="13.0015" width="1.32444" height="4.88174" transform="rotate(-134.805 15.0961 13.0015)" fill="white"/>
<rect x="20.9956" y="11.9603" width="1.32444" height="3.69418" transform="rotate(135 20.9956 11.9603)" fill="white"/>
</svg>
