<svg width="30" height="30" viewBox="0 0 33 36" fill="none" xmlns="http://www.w3.org/2000/svg">
<g clip-path="url(#clip0_1183_4808)">
<path fill-rule="evenodd" clip-rule="evenodd" d="M14.3314 1.85384C14.3331 0.93024 14.763 0.272362 15.503 0.0608962C15.6628 0.0152303 15.8312 -0.0040671 15.9998 0.000708245C16.1684 -0.00408498 16.3367 0.0153755 16.4964 0.0614016C16.938 0.188633 17.2692 0.476138 17.4648 0.885205C17.5066 0.967888 17.5403 1.05475 17.5667 1.14782C17.6329 1.36413 17.6676 1.60598 17.6681 1.86922C17.6684 2.06298 17.656 2.1634 17.699 2.22534C17.7099 2.24105 17.7244 2.25429 17.7435 2.26595L18.0013 2.31455C19.0816 2.51825 20.292 2.92505 21.1396 3.36933L21.5805 3.60036L21.5451 3.62268C24.1163 5.08905 25.9775 7.54621 26.6057 10.4297C26.7757 11.2101 26.8495 12.2356 26.8517 13.8483C26.8537 15.2833 26.9311 16.829 27.076 18.3282C27.0981 18.5559 27.1217 18.778 27.147 18.9947C27.1823 19.1489 27.2139 19.302 27.2318 19.4227C27.561 21.6459 28.095 23.2936 28.8104 24.2934C29.3027 24.9814 29.8122 25.3873 30.8178 25.8921C31.3485 26.1585 31.7052 26.5082 31.8585 26.9127C31.9231 27.083 31.9749 27.4443 31.9921 27.8434C31.998 27.9803 32.0004 28.0981 31.9979 28.2008C31.9984 28.2184 31.9988 28.236 31.9991 28.2538C32.0091 28.841 31.9428 29.0073 31.6134 29.2213C31.4526 29.3258 30.8324 29.3301 16.0103 29.3301C1.2379 29.3301 0.567277 29.3254 0.402571 29.2222C0.0702896 29.0138 -0.0123624 28.8321 0.00142858 28.2324C-0.000374304 28.1687 -0.000392716 28.0987 0.000935408 28.0213C0.0166801 27.1061 0.287402 26.4345 0.77605 26.0985C0.910755 26.0059 1.24327 25.8204 1.51493 25.6863C1.78658 25.5521 2.15952 25.3354 2.34365 25.2047C3.72562 24.2239 4.5544 21.9665 4.92378 18.1774C5.06873 16.6905 5.14608 15.1575 5.14808 13.7343C5.15033 12.1349 5.22412 11.1178 5.39412 10.3439C6.18298 6.7523 8.91675 3.82766 12.5589 2.67883C12.9664 2.55027 13.4685 2.41471 13.6747 2.37753C14.089 2.30276 14.2439 2.28864 14.3008 2.20655C14.3434 2.14509 14.3311 2.04552 14.3314 1.85384ZM11.0544 33.4863C10.5811 32.8544 10.19 31.8987 10.0494 31.0308L10.0086 30.7787H15.6141H21.2195L21.1793 31.0658C20.8642 33.3207 19.1511 35.0961 16.7886 35.6161C16.3027 35.723 15.1213 35.7344 14.5565 35.6375C13.272 35.417 11.8431 34.5394 11.0544 33.4863Z" fill="#2E9BFF"/>
</g>
<defs>
<clipPath id="clip0_1183_4808">
<rect width="33" height="36" fill="white"/>
</clipPath>
</defs>
</svg>
