<svg width="30" height="30" viewBox="0 0 33 36" fill="none" xmlns="http://www.w3.org/2000/svg">
<path fill-rule="evenodd" clip-rule="evenodd" d="M15.503 0.0608964C14.763 0.272362 14.3331 0.93024 14.3314 1.85384C14.3306 2.3015 14.3992 2.24677 13.6747 2.37753C13.4685 2.41471 12.9664 2.55027 12.5589 2.67883C8.91675 3.82766 6.18298 6.7523 5.39412 10.3439C5.22412 11.1178 5.15033 12.1349 5.14808 13.7343C5.14608 15.1575 5.06873 16.6905 4.92378 18.1774C4.5544 21.9665 3.72562 24.2239 2.34365 25.2047C2.15952 25.3354 1.78658 25.5521 1.51493 25.6863C1.24327 25.8204 0.910755 26.0059 0.77605 26.0985C0.287402 26.4345 0.0166801 27.1061 0.000935408 28.0213C-0.00906123 28.6036 0.0572288 28.7686 0.386556 28.9808C0.547377 29.0844 1.16755 29.0887 15.9891 29.0887C30.761 29.0887 31.4316 29.0841 31.5963 28.9817C31.9561 28.7579 32.0232 28.5651 31.9921 27.8434C31.9749 27.4443 31.9231 27.083 31.8585 26.9127C31.7052 26.5082 31.3485 26.1585 30.8178 25.8921C29.8122 25.3873 29.3027 24.9814 28.8104 24.2934C28.095 23.2936 27.561 21.6459 27.2318 19.4227C27.1739 19.0313 26.9705 18.2981 26.9705 18.2981C26.9705 18.2981 26.9705 18.2981 26.5133 18.2981C25.9135 18.3717 24.9308 18.4248 24.2277 18.2981C22.5583 17.9976 20.9701 17.5801 19.732 16.4027C18.4983 15.2294 17.7437 13.9186 17.3813 12.3192C17.1878 11.465 17.1848 9.89285 17.3753 9.0748C17.8922 6.85459 19.1336 5.14537 21.1576 3.86733L21.5805 3.60036L21.1396 3.36933C20.292 2.92505 19.0816 2.51825 18.0013 2.31455L17.6421 2.24683V1.78719C17.6421 1.22573 17.5219 0.868686 17.2204 0.53441C16.8178 0.0879966 16.1004 -0.109829 15.503 0.0608964ZM10.0494 31.0308C10.19 31.8987 10.5811 32.8544 11.0544 33.4863C11.8431 34.5394 13.272 35.417 14.5565 35.6375C15.1213 35.7344 16.3027 35.723 16.7886 35.6161C19.1511 35.0961 20.8642 33.3207 21.1793 31.0658L21.2195 30.7787H15.6141H10.0086L10.0494 31.0308Z" fill="#2E9BFF"/>
<ellipse cx="25" cy="11.2925" rx="8" ry="8.5" fill="#FF0000"/>
<path d="M22.7875 15.7925C22.5622 15.7925 22.3845 15.7318 22.2545 15.6105C22.1332 15.4805 22.0725 15.3071 22.0725 15.0905C22.0725 14.8651 22.1332 14.6961 22.2545 14.5835C22.3845 14.4708 22.5622 14.4145 22.7875 14.4145H24.2435V8.03148H25.0495L23.1385 9.18848C22.9739 9.28381 22.8179 9.32281 22.6705 9.30548C22.5319 9.27948 22.4105 9.21881 22.3065 9.12348C22.2112 9.01948 22.1462 8.89815 22.1115 8.75948C22.0769 8.62081 22.0855 8.48215 22.1375 8.34348C22.1982 8.19615 22.3109 8.07481 22.4755 7.97948L24.2695 6.90048C24.4429 6.79648 24.6162 6.70981 24.7895 6.64048C24.9629 6.56248 25.1232 6.52348 25.2705 6.52348C25.4525 6.52348 25.6042 6.57548 25.7255 6.67948C25.8469 6.77481 25.9075 6.93515 25.9075 7.16048V14.4145H27.2335C27.4589 14.4145 27.6322 14.4708 27.7535 14.5835C27.8835 14.6961 27.9485 14.8651 27.9485 15.0905C27.9485 15.3158 27.8835 15.4891 27.7535 15.6105C27.6322 15.7318 27.4589 15.7925 27.2335 15.7925H22.7875Z" fill="white"/>
</svg>
