<svg width="50" height="50" viewBox="0 0 307 307" fill="none" xmlns="http://www.w3.org/2000/svg">
<path d="M153.5 0L286.435 76.75V230.25L153.5 307L20.5651 230.25V76.75L153.5 0Z" fill="#ECECEC"/>
<path d="M51.443 94.366L153 35.7321L254.557 94.366V211.634L153 270.268L51.443 211.634V94.366Z" stroke="#A324D9" stroke-width="3"/>
<path d="M81 78L153.384 38L231 78" stroke="#A324D9" stroke-width="10"/>
<path d="M225 226L152.616 266L75 226" stroke="#A324D9" stroke-width="10"/>
<path d="M186.535 134.172C186.535 125.533 182.99 117.423 176.553 111.337C170.18 105.31 161.742 102 152.769 102C152.681 102 152.594 102 152.506 102.001C143.51 102.066 135.059 105.495 128.708 111.656C122.353 117.822 118.906 125.942 119.002 134.521C119.104 143.719 123.354 152.454 130.661 158.489C134.933 162.018 137.636 166.912 138.309 172.2H167.228C167.911 166.926 170.644 162.007 174.962 158.416C182.316 152.299 186.535 143.463 186.535 134.172ZM142.978 138.495L138.823 142.453L129.752 133.811L138.823 125.169L142.978 129.127L138.061 133.811L142.978 138.495ZM152.322 149.525L146.571 148.381L153.212 118.096L158.963 119.241L152.322 149.525ZM166.711 142.453L162.557 138.495L167.473 133.811L162.557 129.127L166.711 125.169L175.782 133.811L166.711 142.453Z" fill="url(#paint0_linear_1133_4893)"/>
<path d="M138.021 183.486H167.513C167.513 191.245 160.911 197.535 152.767 197.535C144.623 197.535 138.021 191.245 138.021 183.486Z" fill="url(#paint1_linear_1133_4893)"/>
<defs>
<linearGradient id="paint0_linear_1133_4893" x1="152.767" y1="102" x2="152.767" y2="172.2" gradientUnits="userSpaceOnUse">
<stop stop-color="#E46EFF"/>
<stop offset="0.526042" stop-color="#9F25EB"/>
<stop offset="0.989583" stop-color="#6B0CBE"/>
</linearGradient>
<linearGradient id="paint1_linear_1133_4893" x1="152.767" y1="183.486" x2="152.767" y2="197.535" gradientUnits="userSpaceOnUse">
<stop stop-color="#E46EFF"/>
<stop offset="0.526042" stop-color="#9F25EB"/>
<stop offset="0.989583" stop-color="#6B0CBE"/>
</linearGradient>
</defs>
</svg>
